<svg width="53" height="53" viewBox="0 0 53 53" fill="none" xmlns="http://www.w3.org/2000/svg">
<rect width="53" height="53" rx="14" fill="white"/>
<rect width="53" height="53" rx="14" stroke="#4285F4"/>
<path fill-rule="evenodd" clip-rule="evenodd" d="M38 27.2728C38 26.4219 37.9221 25.6037 37.7774 24.8183H26.2449V29.4601H32.8349C32.551 30.9601 31.6883 32.231 30.3915 33.0819V36.0928H34.3488C36.6642 34.0037 38 30.9274 38 27.2728Z" fill="#4285F4"/>
<path fill-rule="evenodd" clip-rule="evenodd" d="M26.2449 39C29.551 39 32.3228 37.9255 34.3488 36.0928L30.3915 33.0819C29.295 33.8019 27.8924 34.2273 26.2449 34.2273C23.0557 34.2273 20.3562 32.1164 19.3933 29.28H15.3024V32.3891C17.3173 36.3109 21.4583 39 26.2449 39Z" fill="#34A853"/>
<path fill-rule="evenodd" clip-rule="evenodd" d="M19.3933 29.28C19.1484 28.56 19.0093 27.791 19.0093 27.0001C19.0093 26.2092 19.1484 25.4401 19.3933 24.7201V21.611H15.3024C14.4731 23.231 14 25.0637 14 27.0001C14 28.9364 14.4731 30.7691 15.3024 32.3891L19.3933 29.28Z" fill="#FBBC05"/>
<path fill-rule="evenodd" clip-rule="evenodd" d="M26.2449 19.7727C28.0427 19.7727 29.6568 20.3782 30.9258 21.5673L34.4379 18.1255C32.3173 16.1891 29.5455 15 26.2449 15C21.4583 15 17.3173 17.6892 15.3024 21.611L19.3933 24.7201C20.3562 21.8837 23.0557 19.7727 26.2449 19.7727Z" fill="#EA4335"/>
</svg>
