<?xml version="1.0" encoding="UTF-8" standalone="no"?>
<svg
   width="165.8"
   zoomAndPan="magnify"
   viewBox="0 0 124.35 103.5"
   height="138"
   preserveAspectRatio="xMidYMid meet"
   version="1.0"
   id="svg241"
   sodipodi:docname="TimeScrapy_Logo.svg"
   inkscape:version="1.1.1 (3bf5ae0d25, 2021-09-20)"
   xmlns:inkscape="http://www.inkscape.org/namespaces/inkscape"
   xmlns:sodipodi="http://sodipodi.sourceforge.net/DTD/sodipodi-0.dtd"
   xmlns="http://www.w3.org/2000/svg"
   xmlns:svg="http://www.w3.org/2000/svg">
  <sodipodi:namedview
     id="namedview243"
     pagecolor="#505050"
     bordercolor="#eeeeee"
     borderopacity="1"
     inkscape:pageshadow="0"
     inkscape:pageopacity="0"
     inkscape:pagecheckerboard="0"
     showgrid="false"
     inkscape:zoom="1.664"
     inkscape:cx="96.454327"
     inkscape:cy="121.69471"
     inkscape:window-width="1920"
     inkscape:window-height="1017"
     inkscape:window-x="-8"
     inkscape:window-y="-8"
     inkscape:window-maximized="1"
     inkscape:current-layer="svg241"
     width="499px" />
  <defs
     id="defs13">
    <g
       id="g2" />
    <clipPath
       id="74a385a3eb">
      <path
         d="M 27.164062,185 H 42 v 16 H 27.164062 Z m 0,0"
         clip-rule="nonzero"
         id="path4" />
    </clipPath>
    <clipPath
       id="56db47dfa0">
      <path
         d="m 95,158.62109 h 15.34375 V 174 H 95 Z m 0,0"
         clip-rule="nonzero"
         id="path7" />
    </clipPath>
    <clipPath
       id="297041e39c">
      <path
         d="m 47,208 h 20 v 19.62109 H 47 Z m 0,0"
         clip-rule="nonzero"
         id="path10" />
    </clipPath>
  </defs>
  <g
     id="g60"
     transform="translate(-151.11238,-153.21244)">
    <g
       id="g43">
      <path
         fill="#1400ff"
         d="m 211.77432,195.75151 h 29.12103 v 29.12109 h -29.12103 z m 0,0"
         fill-opacity="1"
         fill-rule="evenodd"
         id="path15"
         style="stroke-width:1.49999" />
      <g
         clip-path="url(#74a385a3eb)"
         id="g19"
         transform="matrix(1.499996,0,0,1.5,110.3664,-84.719198)">
        <path
           fill="#1400ff"
           d="m 27.125,185.33203 h 14.707031 v 14.71094 H 27.125 Z m 0,0"
           fill-opacity="1"
           fill-rule="evenodd"
           id="path17" />
      </g>
      <g
         clip-path="url(#56db47dfa0)"
         id="g23"
         transform="matrix(1.499996,0,0,1.5,110.3664,-84.719198)">
        <path
           fill="#1400ff"
           d="m 95.375,158.62109 h 14.70703 v 14.71094 H 95.375 Z m 0,0"
           fill-opacity="1"
           fill-rule="evenodd"
           id="path21" />
      </g>
      <path
         fill="#1400ff"
         d="m 238.15902,233.25736 h 13.2363 v 13.23633 h -13.2363 z m 0,0"
         fill-opacity="1"
         fill-rule="evenodd"
         id="path25"
         style="stroke-width:1.49999" />
      <path
         fill="#00c2ff"
         d="m 190.72165,176.11673 h 14.56637 v 14.56055 h -14.56637 z m 0,0"
         fill-opacity="1"
         fill-rule="evenodd"
         id="path27"
         style="stroke-width:1.49999" />
      <g
         clip-path="url(#297041e39c)"
         id="g31"
         transform="matrix(1.499996,0,0,1.5,110.3664,-84.719198)">
        <path
           fill="#00c2ff"
           d="m 47.835938,208.95312 h 18.972656 v 18.97657 H 47.835938 Z m 0,0"
           fill-opacity="1"
           fill-rule="evenodd"
           id="path29" />
      </g>
      <path
         fill="#00c2ff"
         d="m 156.23346,223.10893 h 16.34761 v 16.34764 h -16.34761 z m 0,0"
         fill-opacity="1"
         fill-rule="evenodd"
         id="path33"
         style="stroke-width:1.49999" />
      <path
         fill="#00c2ff"
         d="m 247.0711,198.92728 h 14.12107 v 14.1211 H 247.0711 Z m 0,0"
         fill-opacity="1"
         fill-rule="evenodd"
         id="path35"
         style="stroke-width:1.49999" />
      <path
         fill="#00c2ff"
         d="m 235.77426,158.33353 h 14.12106 v 14.1211 h -14.12106 z m 0,0"
         fill-opacity="1"
         fill-rule="evenodd"
         id="path37"
         style="stroke-width:1.49999" />
      <path
         fill="#1400ff"
         d="m 243.33869,240.76907 -17.99995,-28.85742 -63.40998,-5.91796 0.31054,-3.36329 65.08576,6.07617 18.89058,30.2754 z m 0,0"
         fill-opacity="1"
         fill-rule="nonzero"
         id="path39"
         style="stroke-width:1.49999" />
      <path
         fill="#1400ff"
         d="m 225.01061,209.26907 40.24209,-50.83593 2.64843,2.0918 -40.24208,50.83008 z m 0,0"
         fill-opacity="1"
         fill-rule="nonzero"
         id="path41"
         style="stroke-width:1.49999" />
    </g>
  </g>
  <g
     fill="#1400ff"
     fill-opacity="1"
     id="g207">
    <g
       transform="translate(279.85936,218.29232)"
       id="g205">
      <g
         id="g203" />
    </g>
  </g>
</svg>
