<svg width="65" height="65" viewBox="0 0 65 65" fill="none" xmlns="http://www.w3.org/2000/svg">
<circle cx="32.5" cy="32.5" r="32.5" fill="#F5F7FA"/>
<g clip-path="url(#clip0_3511_783)">
<path d="M32.8699 48.1001H30.8302C29.1805 48.1001 27.8383 46.7579 27.8383 45.1083V44.4182C27.137 44.1941 26.4555 43.9113 25.8009 43.5725L25.3119 44.0615C24.1275 45.2474 22.2302 45.2126 21.0802 44.0611L19.6386 42.6195C18.4866 41.4688 18.4534 39.5721 19.639 38.3879L20.1276 37.8992C19.7889 37.2446 19.5061 36.5633 19.2819 35.8618H18.5919C16.9423 35.8618 15.6001 34.5197 15.6001 32.87V30.8302C15.6001 29.1805 16.9423 27.8384 18.592 27.8384H19.282C19.5061 27.137 19.7889 26.4556 20.1277 25.801L19.6387 25.312C18.4538 24.1284 18.4865 22.2316 19.639 21.0803L21.0808 19.6387C22.2335 18.4844 24.1303 18.4556 25.3124 19.639L25.801 20.1276C26.4556 19.7889 27.137 19.5061 27.8384 19.2819V18.5919C27.8384 16.9422 29.1805 15.6001 30.8303 15.6001H32.87C34.5197 15.6001 35.8618 16.9422 35.8618 18.5919V19.282C36.5632 19.5061 37.2446 19.7889 37.8992 20.1277L38.3882 19.6387C39.5727 18.4528 41.4699 18.4876 42.6199 19.6391L44.0615 21.0807C45.2136 22.2314 45.2467 24.128 44.0611 25.3123L43.5725 25.801C43.9113 26.4556 44.1941 27.1369 44.4182 27.8384H45.1082C46.7579 27.8384 48.1001 29.1805 48.1001 30.8302V32.87C48.1001 34.5197 46.7579 35.8618 45.1082 35.8618H44.4182C44.1941 36.5632 43.9113 37.2446 43.5725 37.8992L44.0615 38.3882C45.2464 39.5718 45.2137 41.4686 44.0611 42.6199L42.6194 44.0616C41.4667 45.2158 39.5699 45.2447 38.3878 44.0612L37.8992 43.5726C37.2446 43.9113 36.5632 44.1942 35.8618 44.4183V45.1084C35.8618 46.7579 34.5197 48.1001 32.8699 48.1001ZM26.1192 41.5728C27.0287 42.1106 28.0075 42.517 29.0284 42.7804C29.4489 42.8889 29.7427 43.2681 29.7427 43.7024V45.1083C29.7427 45.7079 30.2306 46.1958 30.8303 46.1958H32.87C33.4696 46.1958 33.9576 45.7079 33.9576 45.1083V43.7024C33.9576 43.2681 34.2514 42.8889 34.6718 42.7804C35.6928 42.517 36.6716 42.1106 37.581 41.5728C37.9552 41.3515 38.4316 41.4117 38.739 41.7191L39.7348 42.715C40.1642 43.1449 40.8537 43.1349 41.2725 42.7154L42.7151 41.2729C43.1329 40.8556 43.1469 40.166 42.7155 39.7352L41.7192 38.7389C41.4119 38.4315 41.3517 37.9551 41.5729 37.581C42.1108 36.6716 42.517 35.6928 42.7805 34.6718C42.8891 34.2513 43.2683 33.9576 43.7024 33.9576H45.1083C45.7079 33.9576 46.1959 33.4697 46.1959 32.87V30.8303C46.1959 30.2306 45.7079 29.7427 45.1083 29.7427H43.7024C43.2682 29.7427 42.8891 29.449 42.7805 29.0286C42.517 28.0075 42.1107 27.0287 41.5729 26.1194C41.3517 25.7452 41.4119 25.2688 41.7192 24.9614L42.7151 23.9655C43.1456 23.5356 43.1344 22.8462 42.7155 22.4278L41.273 20.9853C40.8549 20.5666 40.1653 20.5544 39.7353 20.9849L38.7391 21.9812C38.4317 22.2886 37.9551 22.3488 37.5811 22.1275C36.6716 21.5897 35.6928 21.1834 34.6719 20.9199C34.2514 20.8114 33.9576 20.4322 33.9576 19.9979V18.5919C33.9576 17.9923 33.4697 17.5044 32.87 17.5044H30.8303C30.2307 17.5044 29.7427 17.9923 29.7427 18.5919V19.9978C29.7427 20.4321 29.449 20.8113 29.0285 20.9198C28.0075 21.1832 27.0287 21.5896 26.1193 22.1274C25.745 22.3486 25.2687 22.2884 24.9613 21.9811L23.9655 20.9852C23.5361 20.5553 22.8466 20.5653 22.4278 20.9848L20.9852 22.4273C20.5674 22.8446 20.5534 23.5342 20.9848 23.965L21.9811 24.9613C22.2884 25.2687 22.3486 25.7451 22.1274 26.1192C21.5896 27.0286 21.1833 28.0074 20.9198 29.0284C20.8113 29.4489 20.4321 29.7426 19.9979 29.7426H18.592C17.9923 29.7427 17.5044 30.2306 17.5044 30.8302V32.87C17.5044 33.4696 17.9923 33.9575 18.592 33.9575H19.9978C20.4321 33.9575 20.8112 34.2513 20.9198 34.6717C21.1832 35.6927 21.5896 36.6715 22.1273 37.5809C22.3485 37.955 22.2884 38.4315 21.981 38.7388L20.9851 39.7347C20.5546 40.1647 20.5659 40.8541 20.9848 41.2724L22.4273 42.7149C22.8454 43.1336 23.535 43.1459 23.965 42.7153L24.9612 41.7191C25.1877 41.4926 25.6588 41.3005 26.1192 41.5728Z" fill="#718EBF"/>
<path d="M31.8501 38.9214C27.9509 38.9214 24.7788 35.7492 24.7788 31.8501C24.7788 27.951 27.9509 24.7788 31.8501 24.7788C35.7493 24.7788 38.9214 27.951 38.9214 31.8501C38.9214 35.7492 35.7493 38.9214 31.8501 38.9214ZM31.8501 26.6831C29.001 26.6831 26.6831 29.001 26.6831 31.8501C26.6831 34.6992 29.001 37.0171 31.8501 37.0171C34.6992 37.0171 37.0171 34.6992 37.0171 31.8501C37.0171 29.001 34.6992 26.6831 31.8501 26.6831Z" fill="#718EBF"/>
</g>
<defs>
<clipPath id="clip0_3511_783">
<rect width="32.5" height="32.5" fill="white" transform="translate(15.6001 15.6001)"/>
</clipPath>
</defs>
</svg>
